<?xml version="1.0" encoding="UTF-8"?>
<svg version="1.1" xmlns="http://www.w3.org/2000/svg" width="512" height="512">
<path d="M0 0 C7.92920889 4.91161207 14.5435816 12.63391402 21.08688354 19.2217865 C21.89398773 20.03030563 22.70109192 20.83882477 23.53265381 21.67184448 C26.07134977 24.2160696 28.60651776 26.76377611 31.14157104 29.31163025 C32.87831645 31.05339983 34.61529365 32.79493831 36.35250854 34.53623962 C40.57654106 38.77120696 44.79769492 43.00902641 49.01657104 47.24913025 C51.90460845 45.9429257 53.94628872 44.56003204 56.16110229 42.2999115 C57.0422168 41.40888733 57.0422168 41.40888733 57.94113159 40.49986267 C58.56415161 39.86024597 59.18717163 39.22062927 59.82907104 38.56163025 C60.47980591 37.90332214 61.13054077 37.24501404 61.80099487 36.5667572 C63.87772642 34.46561989 65.94789578 32.35819806 68.01657104 30.24913025 C70.73997912 27.47254544 73.46990449 24.70261699 76.20407104 21.93663025 C76.82709106 21.29701355 77.45011108 20.65739685 78.0920105 19.99839783 C78.973125 19.10737366 78.973125 19.10737366 79.87203979 18.198349 C80.38403931 17.67587585 80.89603882 17.15340271 81.42355347 16.61509705 C84.87880168 13.65232099 87.89532925 12.93710282 92.39157104 12.87413025 C93.76442261 12.83159119 93.76442261 12.83159119 95.16500854 12.78819275 C103.00487711 14.05545917 108.76954587 21.66214118 114.12203979 26.98350525 C115.09270006 27.94518307 116.06342983 28.90679074 117.03422546 29.86833191 C119.06093704 31.87861966 121.08327287 33.89320085 123.10324097 35.91026306 C125.68036041 38.48199423 128.27325798 41.03716453 130.87038708 43.58866501 C132.87873104 45.56713862 134.87560205 47.55689848 136.86956215 49.54985809 C138.27928779 50.95338624 139.70057727 52.34526893 141.12208557 53.73686218 C146.48255295 59.13515459 150.79066594 63.75789844 151.11813354 71.71788025 C148.4061534 83.27713989 136.73105642 91.65571275 128.57907104 99.74913025 C127.35813414 100.96504138 126.13742912 102.18118541 124.91696167 103.39756775 C121.95283091 106.35077991 118.98558146 109.30082423 116.01657104 112.24913025 C117.48742596 115.6641608 119.38572976 117.84181102 122.03561401 120.43174744 C122.86342377 121.24649536 123.69123352 122.06124329 124.54412842 122.90068054 C125.43995636 123.7736377 126.3357843 124.64659485 127.25875854 125.54600525 C128.66456173 126.93298641 130.070353 128.31997989 131.47545052 129.70767593 C134.93479177 133.12125708 138.40463251 136.52409659 141.88034058 139.92100525 C143.83089581 141.82814669 145.7758644 143.74068786 147.71533203 145.65910339 C149.53876968 147.461963 151.37037325 149.25661126 153.21112061 151.04179382 C160.8463906 158.6152073 165.11771976 165.36161617 165.32907104 176.37413025 C165.34473529 190.92621538 156.93054294 198.40448231 147.20797729 208.15538025 C144.66951651 210.69118124 142.12464739 213.22047546 139.57907104 215.74913025 C138.26178046 217.0613961 136.94472118 218.37389419 135.62789917 219.68663025 C132.42678494 222.87681531 129.2225524 226.06383675 126.01657104 229.24913025 C126.4330188 229.91299744 126.84946655 230.57686462 127.27853394 231.260849 C127.82243774 232.14385681 128.36634155 233.02686462 128.92672729 233.93663025 C129.46692505 234.80674744 130.0071228 235.67686462 130.56369019 236.573349 C134.37578057 243.5941036 134.83371697 251.54731969 133.01657104 259.24913025 C130.18098949 267.38712216 124.95393128 273.19272046 119.01657104 279.24913025 C118.39685425 279.8931781 117.77713745 280.53722595 117.13864136 281.20079041 C115.04616578 283.37343937 112.94005812 285.5319709 110.82907104 287.68663025 C110.1519104 288.38546326 109.47474976 289.08429626 108.77706909 289.80430603 C104.14348345 294.46686934 99.62599689 298.61609562 92.70407104 298.81163025 C83.94811736 298.35059729 77.30908791 290.98182196 71.4772644 285.05039978 C70.78344666 284.35702011 70.08962891 283.66364044 69.37478638 282.94924927 C67.11146665 280.68386019 64.8589254 278.40807529 62.60641479 276.13194275 C61.02809882 274.54802424 59.44911377 272.9647722 57.86949158 271.38215637 C53.73486602 267.23613392 49.60933363 263.08117879 45.48568726 258.92424011 C41.26775687 254.67549742 37.04120968 250.43534535 32.81539917 246.19444275 C24.54071057 237.88768103 16.27561153 229.57144832 8.01657104 221.24913025 C1.16467085 226.86534656 -5.00608892 233.13813838 -11.25271606 239.40489197 C-12.48504504 240.63750337 -13.71759495 241.86989392 -14.9503479 243.1020813 C-18.28058193 246.4320295 -21.60773296 249.76504253 -24.93432307 253.09863043 C-28.41720163 256.5877783 -31.90292965 260.07407717 -35.38835144 263.5606842 C-41.98103869 270.15647424 -48.57117358 276.7548083 -55.16038662 283.35406888 C-62.6650751 290.86995122 -70.17261774 298.38297982 -77.68039691 305.8957746 C-93.11791024 321.34372848 -108.5518506 336.79524784 -123.98342896 352.24913025 C-119.94465272 357.10137673 -115.7091945 361.65165133 -111.21536255 366.08311462 C-110.56742233 366.72638199 -109.91948212 367.36964935 -109.25190735 368.03240967 C-107.85673204 369.41715172 -106.46045773 370.80078721 -105.06318283 372.18341064 C-102.84893902 374.37547791 -100.63881624 376.57162226 -98.42987061 378.76902771 C-92.15313873 385.0123048 -85.87225707 391.2513588 -79.58108521 397.48008728 C-75.72275116 401.30070517 -71.87182544 405.12865814 -68.02550125 408.96136475 C-66.56349143 410.41534309 -65.09871394 411.86654416 -63.63108444 413.31484985 C-61.57797045 415.34138547 -59.53441971 417.37713362 -57.4927063 419.41514587 C-56.89001419 420.00548111 -56.28732208 420.59581635 -55.66636658 421.20404053 C-51.18770718 425.70410216 -46.4082457 430.9771906 -46.42092896 437.68663025 C-47.15656 447.55313001 -55.55150622 454.30602087 -62.17092896 460.87413025 C-63.06618286 461.78936462 -63.96143677 462.704599 -64.88381958 463.64756775 C-72.52623737 471.28446755 -80.80101245 478.36982912 -91.98342896 479.24913025 C-101.4509127 479.21959052 -108.22904403 476.47116213 -115.98342896 471.24913025 C-116.39161865 471.66620239 -116.79980835 472.08327454 -117.22036743 472.51298523 C-121.49136142 476.87284082 -125.7766619 481.21825879 -130.07034302 485.55577087 C-131.66841846 487.17389502 -133.26287715 488.79559976 -134.85354614 490.42100525 C-137.14770783 492.76397889 -139.45479939 495.0935384 -141.76467896 497.42100525 C-142.46709717 498.1440686 -143.16951538 498.86713196 -143.89321899 499.61210632 C-151.65713052 507.37946684 -159.09071885 510.55192335 -170.14968872 510.56382751 C-184.32032685 510.2762284 -192.70710687 499.68433254 -202.07717896 490.2530365 C-203.32537415 489.00271889 -203.32537415 489.00271889 -204.5987854 487.72714233 C-207.22937831 485.09099763 -209.85645337 482.4513792 -212.48342896 479.81163025 C-214.27746751 478.01257046 -216.07173611 476.21374005 -217.86624146 474.41514587 C-222.24130021 470.02912213 -226.61348407 465.64024883 -230.98342896 461.24913025 C-233.86141995 462.54879997 -235.86939044 463.90441396 -238.0486145 466.18247986 C-238.61988571 466.77326828 -239.19115692 467.3640567 -239.77973938 467.9727478 C-240.38707413 468.60922745 -240.99440887 469.24570709 -241.62014771 469.901474 C-242.93269362 471.24906886 -244.24586476 472.59605499 -245.55960083 473.94248962 C-247.61563159 476.06026746 -249.66668293 478.18219074 -251.70681763 480.31529236 C-253.68499662 482.37871911 -255.68208033 484.42227688 -257.68264771 486.463974 C-258.2798613 487.09842941 -258.87707489 487.73288483 -259.49238586 488.38656616 C-263.76800359 492.7125021 -267.94154584 495.15728687 -273.98342896 496.24913025 C-286.93913421 496.12197481 -299.12146634 478.44246231 -307.51199341 470.12559509 C-309.37069925 468.28856845 -311.23564774 466.4578371 -313.10671997 464.63340759 C-315.8264089 461.98071547 -318.5258023 459.30877461 -321.22171021 456.63194275 C-322.05608109 455.82540253 -322.89045197 455.0188623 -323.75010681 454.18788147 C-328.53703515 449.38381107 -331.93528374 445.09643748 -332.98342896 438.24913025 C-332.49391312 426.19741332 -318.52850287 416.67435342 -310.54592896 408.74913025 C-309.32499205 407.53321911 -308.10428703 406.31707509 -306.88381958 405.10069275 C-303.91968882 402.14748059 -300.95243937 399.19743627 -297.98342896 396.24913025 C-299.45428387 392.83409969 -301.35258767 390.65644948 -304.00247192 388.06651306 C-304.83028168 387.25176514 -305.65809143 386.43701721 -306.51098633 385.59757996 C-307.40681427 384.7246228 -308.30264221 383.85166565 -309.22561646 382.95225525 C-310.63141964 381.56527408 -312.03721091 380.17828061 -313.44230843 378.79058456 C-316.90164968 375.37700342 -320.37149042 371.97416391 -323.84719849 368.57725525 C-325.79775372 366.67011381 -327.74272231 364.75757264 -329.68218994 362.8391571 C-331.50562759 361.0362975 -333.33723116 359.24164924 -335.17797852 357.45646667 C-342.81324851 349.8830532 -347.08457767 343.13664433 -347.29592896 332.12413025 C-347.3115932 317.57204512 -338.89740085 310.09377819 -329.17483521 300.34288025 C-326.63637442 297.80707926 -324.0915053 295.27778504 -321.54592896 292.74913025 C-320.22863837 291.4368644 -318.91157909 290.1243663 -317.59475708 288.81163025 C-314.39364285 285.62144519 -311.18941031 282.43442374 -307.98342896 279.24913025 C-308.60810059 278.25332947 -308.60810059 278.25332947 -309.24539185 277.2374115 C-309.78929565 276.35440369 -310.33319946 275.47139587 -310.89358521 274.56163025 C-311.70388184 273.25645447 -311.70388184 273.25645447 -312.5305481 271.9249115 C-316.34263848 264.90415689 -316.80057488 256.95094081 -314.98342896 249.24913025 C-312.1478474 241.11113834 -306.92078919 235.30554004 -300.98342896 229.24913025 C-300.36371216 228.6050824 -299.74399536 227.96103455 -299.10549927 227.29747009 C-297.01302369 225.12482113 -294.90691603 222.96628959 -292.79592896 220.81163025 C-292.11876831 220.11279724 -291.44160767 219.41396423 -290.743927 218.69395447 C-286.11034136 214.03139116 -281.5928548 209.88216488 -274.67092896 209.68663025 C-265.91497527 210.1476632 -259.27594582 217.51643854 -253.44412231 223.44786072 C-252.75030457 224.14124039 -252.05648682 224.83462006 -251.34164429 225.54901123 C-249.07832456 227.81440031 -246.82578331 230.09018521 -244.57327271 232.36631775 C-242.99495673 233.95023625 -241.41597168 235.5334883 -239.83634949 237.11610413 C-235.70172393 241.26212658 -231.57619154 245.41708171 -227.45254517 249.57402039 C-223.23461478 253.82276308 -219.00806759 258.06291515 -214.78225708 262.30381775 C-206.50756848 270.61057947 -198.24246944 278.92681218 -189.98342896 287.24913025 C-183.13152876 281.63291393 -176.96076899 275.36012212 -170.71414185 269.09336853 C-169.48181287 267.86075713 -168.24926296 266.62836658 -167.01651001 265.3961792 C-163.68627598 262.066231 -160.35912495 258.73321797 -157.03253484 255.39963007 C-153.54965628 251.9104822 -150.06392826 248.42418332 -146.57850647 244.93757629 C-139.98581922 238.34178626 -133.39568433 231.7434522 -126.80647129 225.14419162 C-119.30178281 217.62830928 -111.79424017 210.11528068 -104.286461 202.6024859 C-88.84894767 187.15453202 -73.41500731 171.70301266 -57.98342896 156.24913025 C-62.02220519 151.39688377 -66.25766341 146.84660917 -70.75149536 142.41514587 C-71.39943558 141.77187851 -72.04737579 141.12861115 -72.71495056 140.46585083 C-74.11012587 139.08110878 -75.50640018 137.69747328 -76.90367508 136.31484985 C-79.11791889 134.12278259 -81.32804167 131.92663824 -83.5369873 129.72923279 C-89.81371918 123.4859557 -96.09460084 117.24690169 -102.38577271 111.01817322 C-106.24410675 107.19755533 -110.09503247 103.36960235 -113.94135666 99.53689575 C-115.40336648 98.08291741 -116.86814397 96.63171634 -118.33577347 95.18341064 C-120.38888746 93.15687503 -122.4324382 91.12112688 -124.47415161 89.08311462 C-125.07684372 88.49277939 -125.67953583 87.90244415 -126.30049133 87.29421997 C-130.77915073 82.79415834 -135.55861221 77.5210699 -135.54592896 70.81163025 C-134.81029791 60.94513048 -126.41535169 54.19223963 -119.79592896 47.62413025 C-118.90067505 46.70889587 -118.00542114 45.7936615 -117.08303833 44.85069275 C-109.44062054 37.21379295 -101.16584546 30.12843138 -89.98342896 29.24913025 C-80.51594521 29.27866998 -73.73781388 32.02709836 -65.98342896 37.24913025 C-65.57523926 36.83205811 -65.16704956 36.41498596 -64.74649048 35.98527527 C-60.47549649 31.62541968 -56.19019601 27.2800017 -51.89651489 22.94248962 C-50.29843945 21.32436548 -48.70398076 19.70266073 -47.11331177 18.07725525 C-44.81915008 15.73428161 -42.51205852 13.4047221 -40.20217896 11.07725525 C-39.49976074 10.35419189 -38.79734253 9.63112854 -38.07363892 8.88615417 C-28.56288509 -0.62882464 -13.03808464 -6.34663947 0 0 Z " fill="#1689FB" transform="translate(346.9834289550781,1.7508697509765625)"/>
<path d="M0 0 C6.32941359 3.27032107 11.46835793 8.03826143 16.42822266 13.07177734 C17.11079636 13.75230667 17.79337006 14.432836 18.49662781 15.13398743 C20.72641987 17.36079847 22.94534498 19.59809653 25.1640625 21.8359375 C26.72568159 23.40061956 28.28789684 24.96470684 29.85067749 26.52822876 C33.11468705 29.79682495 36.37374687 33.0702465 39.62890625 36.34765625 C43.78563278 40.53266329 47.95098398 44.70894803 52.11963844 48.88207054 C56.11677242 52.88437926 60.10921899 56.89135132 64.1015625 60.8984375 C64.8554488 61.65420452 65.6093351 62.40997154 66.38606644 63.18864059 C68.53683087 65.34633966 70.6841931 67.50736742 72.83056641 69.66943359 C73.45516251 70.29514755 74.07975861 70.92086151 74.72328186 71.5655365 C78.41245914 75.29017672 81.89903647 79.13935919 85.32888031 83.10330963 C87.75003109 85.85127161 90.30593824 88.44593591 92.90014648 91.02954102 C93.44427185 91.5754187 93.98839722 92.12129639 94.54901123 92.68371582 C96.32055922 94.4596091 98.09567356 96.2318848 99.87109375 98.00390625 C101.1200238 99.25351145 102.36880551 100.50326493 103.6174469 101.75315857 C106.22389431 104.36107304 108.83212294 106.96718907 111.44165039 109.57202148 C114.76788521 112.89255965 118.08960934 116.21756812 121.41000271 119.54394627 C123.98455823 122.12213426 126.56151415 124.69791244 129.13917732 127.27299309 C130.36417868 128.4973326 131.58845219 129.72240084 132.81194878 130.94824409 C134.52902789 132.66789417 136.24933423 134.38425373 137.97045898 136.09985352 C138.71030785 136.84273872 138.71030785 136.84273872 139.46510315 137.60063171 C142.20411115 140.32356538 145.01950879 142.91317853 147.93965149 145.44163513 C151.77362401 148.76662894 155.40416841 152.24982257 158.99511719 155.83398438 C159.64334946 156.47725174 160.29158173 157.1205191 160.9594574 157.78327942 C163.07466607 159.88403911 165.18610255 161.98853353 167.296875 164.09375 C168.38715374 165.17978767 168.38715374 165.17978767 169.49945831 166.2877655 C173.33876605 170.11215841 177.17524747 173.93935914 181.00927734 177.76904297 C184.95892057 181.71318317 188.91777125 185.64794504 192.87882614 189.58061981 C195.93625028 192.61939849 198.98692473 195.6648856 202.03580475 198.7122345 C203.49251103 200.16592294 204.95170761 201.61712052 206.41347504 203.0657196 C208.45697944 205.09210847 210.49074226 207.12781934 212.52246094 209.16601562 C213.12201096 209.75635086 213.72156097 210.3466861 214.33927917 210.95491028 C218.80015339 215.46033161 223.57516105 220.73980415 223.5625 227.4375 C222.82686895 237.30399976 214.43192273 244.05689062 207.8125 250.625 C206.91724609 251.54023438 206.02199219 252.45546875 205.09960938 253.3984375 C197.45719158 261.0353373 189.1824165 268.12069887 178 269 C168.53251625 268.97046027 161.75438492 266.22203189 154 261 C153.5918103 261.41707214 153.18362061 261.83414429 152.76306152 262.26385498 C148.49206753 266.62371057 144.20676705 270.96912854 139.91308594 275.30664062 C138.3150105 276.92476477 136.72055181 278.54646951 135.12988281 280.171875 C132.83572112 282.51484864 130.52862957 284.84440815 128.21875 287.171875 C127.51633179 287.89493835 126.81391357 288.61800171 126.09020996 289.36297607 C118.32629843 297.13033659 110.89271011 300.3027931 99.83374023 300.31469727 C85.6631021 300.02709815 77.27632209 289.43520229 67.90625 280.00390625 C66.65805481 278.75358864 66.65805481 278.75358864 65.38464355 277.47801208 C62.75405065 274.84186738 60.12697559 272.20224895 57.5 269.5625 C55.70596145 267.76344021 53.91169285 265.9646098 52.1171875 264.16601562 C47.74212875 259.77999188 43.36994488 255.39111858 39 251 C36.12200901 252.29966972 34.11403851 253.65528371 31.93481445 255.93334961 C31.36354324 256.52413803 30.79227203 257.11492645 30.20368958 257.72361755 C29.59635483 258.3600972 28.98902008 258.99657684 28.36328125 259.65234375 C27.05073534 260.99993861 25.73756419 262.34692474 24.42382812 263.69335938 C22.36779737 265.81113721 20.31674602 267.93306049 18.27661133 270.06616211 C16.29843233 272.12958886 14.30134863 274.17314664 12.30078125 276.21484375 C11.70356766 276.84929916 11.10635406 277.48375458 10.49104309 278.13743591 C6.21542536 282.46337186 2.04188312 284.90815662 -4 286 C-16.95570525 285.87284456 -29.13803738 268.19333206 -37.52856445 259.87646484 C-39.3872703 258.0394382 -41.25221878 256.20870685 -43.12329102 254.38427734 C-45.84297995 251.73158522 -48.54237334 249.05964436 -51.23828125 246.3828125 C-52.07265213 245.57627228 -52.90702301 244.76973206 -53.76667786 243.93875122 C-58.5536062 239.13468082 -61.95185478 234.84730723 -63 228 C-62.51048416 215.94828307 -48.54507392 206.42522317 -40.5625 198.5 C-39.3415631 197.28408886 -38.12085808 196.06794484 -36.90039062 194.8515625 C-33.93625987 191.89835034 -30.96901042 188.94830602 -28 186 C-29.47085492 182.58496945 -31.36915872 180.40731923 -34.01904297 177.81738281 C-34.84685272 177.00263489 -35.67466248 176.18788696 -36.52755737 175.34844971 C-37.42338531 174.47549255 -38.31921326 173.6025354 -39.2421875 172.703125 C-40.64799068 171.31614384 -42.05378195 169.92915036 -43.45887947 168.54145432 C-46.91822072 165.12787317 -50.38806146 161.72503366 -53.86376953 158.328125 C-55.81432477 156.42098356 -57.75929336 154.50844239 -59.69876099 152.59002686 C-61.52219863 150.78716725 -63.35380221 148.99251899 -65.19454956 147.20733643 C-72.82981955 139.63392295 -77.10114872 132.88751408 -77.3125 121.875 C-77.32816425 107.32291487 -68.9139719 99.84464794 -59.19140625 90.09375 C-56.65294547 87.55794901 -54.10807635 85.02865479 -51.5625 82.5 C-50.24520941 81.18773415 -48.92815014 79.87523605 -47.61132812 78.5625 C-44.4102139 75.37231494 -41.20598135 72.18529349 -38 69 C-38.41644775 68.33613281 -38.83289551 67.67226563 -39.26196289 66.98828125 C-39.8058667 66.10527344 -40.34977051 65.22226562 -40.91015625 64.3125 C-41.72045288 63.00732422 -41.72045288 63.00732422 -42.54711914 61.67578125 C-46.35920953 54.65502665 -46.81714593 46.70181056 -45 39 C-42.16441844 30.86200809 -36.93736023 25.05640979 -31 19 C-30.3802832 18.35595215 -29.76056641 17.7119043 -29.12207031 17.04833984 C-27.02959474 14.87569088 -24.92348708 12.71715935 -22.8125 10.5625 C-22.13533936 9.86366699 -21.45817871 9.16483398 -20.76049805 8.44482422 C-14.59631977 2.2420962 -8.97639013 -1.6148372 0 0 Z " fill="#1689FB" transform="translate(77,212)"/>
<path d="M0 0 C4.11947432 1.86442227 6.88434441 4.87941588 10.03709412 8.06987 C10.76291687 8.78868347 11.48873962 9.50749695 12.23655701 10.24809265 C14.63523297 12.62915284 17.01896712 15.0245633 19.40208435 17.42118835 C21.06628935 19.08269862 22.73108773 20.74361474 24.39645386 22.40396118 C27.88722001 25.88882664 31.37064122 29.38083226 34.84910583 32.87797546 C39.29985649 37.351462 43.76825027 41.8068228 48.2423563 46.25693607 C51.68548852 49.68558084 55.11899525 53.12373765 58.54971123 56.56480217 C60.1929538 58.21070661 61.83915512 59.85366271 63.48838997 61.4935627 C65.7983206 63.7932861 68.09495999 66.10553201 70.38865662 68.4214325 C71.06772568 69.09240463 71.74679474 69.76337677 72.44644165 70.4546814 C80.02773553 78.17185163 82.95120859 85.52635975 82.96287537 96.36479187 C82.63322113 112.60757769 67.90375288 123.07653884 57.2106781 133.6985321 C55.89338751 135.01079796 54.57632824 136.32329605 53.25950623 137.6360321 C50.058392 140.82621717 46.85415945 144.01323861 43.6481781 147.1985321 C44.06462585 147.86239929 44.48107361 148.52626648 44.91014099 149.21025085 C45.4540448 150.09325867 45.99794861 150.97626648 46.55833435 151.8860321 C47.0985321 152.75614929 47.63872986 153.62626648 48.19529724 154.52275085 C52.00738763 161.54350546 52.46532403 169.49672154 50.6481781 177.1985321 C47.81259655 185.33652401 42.58553834 191.14212232 36.6481781 197.1985321 C36.0284613 197.84257996 35.40874451 198.48662781 34.77024841 199.15019226 C32.67777284 201.32284122 30.57166518 203.48137276 28.4606781 205.6360321 C27.78351746 206.33486511 27.10635681 207.03369812 26.40867615 207.75370789 C21.77509051 212.41627119 17.25760395 216.56549748 10.3356781 216.7610321 C1.63936384 216.30500693 -4.97677335 209.01620127 -10.78004456 203.12675476 C-11.46261826 202.44622543 -12.14519196 201.76569611 -12.84844971 201.06454468 C-15.07824177 198.83773364 -17.29716688 196.60043557 -19.5158844 194.3625946 C-21.07750349 192.79791254 -22.63971874 191.23382527 -24.20249939 189.67030334 C-27.46650895 186.40170715 -30.72556877 183.1282856 -33.98072815 179.85087585 C-38.13745468 175.66586881 -42.30280588 171.48958407 -46.47146034 167.31646156 C-50.46859432 163.31415285 -54.46104089 159.30718079 -58.4533844 155.3000946 C-59.2072707 154.54432758 -59.961157 153.78856056 -60.73788834 153.00989151 C-62.88865277 150.85219244 -65.036015 148.69116468 -67.18238831 146.52909851 C-67.80698441 145.90338455 -68.43158051 145.27767059 -69.07510376 144.63299561 C-72.79599516 140.87633641 -76.33351959 137.00499292 -79.77986813 132.99465752 C-82.16627345 130.26793404 -84.71068449 127.71482875 -87.28541565 125.1672821 C-87.80821609 124.64589661 -88.33101654 124.12451111 -88.86965942 123.58732605 C-90.50717188 121.95532132 -92.14816039 120.32686636 -93.7893219 118.6985321 C-94.9139052 117.57897578 -96.03825595 116.45918581 -97.16236877 115.3391571 C-99.88951534 112.62291677 -102.61978097 109.90984919 -105.3518219 107.1985321 C-103.79953529 103.47946399 -101.52570053 101.14225046 -98.67433167 98.32572937 C-98.20093353 97.85525177 -97.7275354 97.38477417 -97.23979187 96.90003967 C-96.21456274 95.88240199 -95.18703014 94.86708083 -94.15745735 93.85383797 C-92.52606785 92.24804732 -90.90107098 90.6360286 -89.27758789 89.02224731 C-85.24405807 85.01541778 -81.19976633 81.01950683 -77.15577698 77.02323914 C-73.73778031 73.64476514 -70.32394547 70.26218795 -66.91549492 66.87408257 C-65.31813045 65.28963922 -63.7148395 63.7113652 -62.11123657 62.13323975 C-61.12676297 61.15603537 -60.14257141 60.17854675 -59.15870667 59.20072937 C-58.30092117 58.35341751 -57.44313568 57.50610565 -56.55935669 56.63311768 C-54.4127414 54.26571733 -52.98462889 51.93069491 -51.3518219 49.1985321 C-49.81261178 47.46166744 -48.22041221 45.77104885 -46.59254456 44.11698914 C-46.12221298 43.63672775 -45.65188141 43.15646637 -45.16729736 42.66165161 C-43.62233916 41.08767302 -42.06986324 39.52141489 -40.5158844 37.9563446 C-39.43355694 36.86250425 -38.3512307 35.76866268 -37.26890564 34.67481995 C-35.0048298 32.38979363 -32.73618047 30.10941083 -30.46510315 27.8313446 C-27.55387014 24.90909771 -24.66167984 21.96873133 -21.7734623 19.02375984 C-19.5478723 16.76097829 -17.30903338 14.51167075 -15.06631088 12.26588058 C-13.99360767 11.18711895 -12.92591509 10.10335089 -11.86337662 9.01457596 C-10.37930163 7.49647181 -8.87753934 5.99834936 -7.36988831 4.50370789 C-6.51956024 3.64608856 -5.66923218 2.78846924 -4.7931366 1.90486145 C-2.3518219 0.1985321 -2.3518219 0.1985321 0 0 Z " fill="#1689FB" transform="translate(429.35182189941406,83.80146789550781)"/>
<path d="M0 0 C4.56964892 3.82400012 8.92089744 7.77818862 13.11889648 12.00537109 C13.9689904 12.85524597 13.9689904 12.85524597 14.83625793 13.72229004 C16.68358747 15.57030868 18.52736301 17.42182903 20.37109375 19.2734375 C21.66124403 20.56545552 22.95161724 21.85725096 24.24220276 23.14883423 C27.61944189 26.52987043 30.99366562 29.91390014 34.36724854 33.29858398 C37.81786929 36.75947959 41.27136338 40.21750543 44.72460938 43.67578125 C51.48587186 50.44773144 58.24394899 57.22285083 65 64 C59.33267147 70.9206778 52.98776776 77.14575189 46.66064453 83.45288086 C45.40832895 84.70491403 44.15623421 85.9571681 42.90434265 87.20962524 C39.52067724 90.59357652 36.13394651 93.97444461 32.74664164 97.3547523 C29.20143965 100.89368563 25.65908604 104.43546779 22.11642456 107.97694397 C15.41438656 114.67587899 8.70980443 121.37226169 2.00429618 128.06772286 C-5.63250256 135.69332833 -13.26644807 143.32178743 -20.9001596 150.9504832 C-36.59694191 166.63682453 -52.29728973 182.31959297 -68 198 C-72.56964892 194.17599988 -76.92089744 190.22181138 -81.11889648 185.99462891 C-81.68562576 185.42804565 -82.25235504 184.8614624 -82.83625793 184.27770996 C-84.68358747 182.42969132 -86.52736301 180.57817097 -88.37109375 178.7265625 C-89.66124403 177.43454448 -90.95161724 176.14274904 -92.24220276 174.85116577 C-95.61944189 171.47012957 -98.99366562 168.08609986 -102.36724854 164.70141602 C-105.81786929 161.24052041 -109.27136338 157.78249457 -112.72460938 154.32421875 C-119.48587186 147.55226856 -126.24394899 140.77714917 -133 134 C-127.33267147 127.0793222 -120.98776776 120.85424811 -114.66064453 114.54711914 C-113.40832895 113.29508597 -112.15623421 112.0428319 -110.90434265 110.79037476 C-107.52067724 107.40642348 -104.13394651 104.02555539 -100.74664164 100.6452477 C-97.20143965 97.10631437 -93.65908604 93.56453221 -90.11642456 90.02305603 C-83.41438656 83.32412101 -76.70980443 76.62773831 -70.00429618 69.93227714 C-62.36749744 62.30667167 -54.73355193 54.67821257 -47.0998404 47.0495168 C-31.40305809 31.36317547 -15.70271027 15.68040703 0 0 Z " fill="#C4C8F6" transform="translate(290,157)"/>
<path d="M0 0 C3.28198266 1.4364888 5.45082228 3.20342016 7.97369385 5.73318481 C9.14309509 6.89846207 9.14309509 6.89846207 10.33612061 8.08728027 C11.18200745 8.94035767 12.02789429 9.79343506 12.89941406 10.67236328 C13.79732666 11.56998383 14.69523926 12.46760437 15.62036133 13.39242554 C18.07908978 15.85058047 20.53160549 18.31485045 22.98305225 20.78026438 C25.54727454 23.35699408 28.11716645 25.92805644 30.6864624 28.49972534 C35.54941983 33.3688975 40.40725677 38.24314518 45.26327491 43.11923683 C50.79256418 48.67088529 56.32753748 54.21685188 61.86299562 59.76234841 C73.24833386 71.16858848 84.62651247 82.58194296 96 94 C94.26894155 97.69379583 92.18101213 100.06094178 89.27490234 102.95214844 C88.79668533 103.4306575 88.31846832 103.90916656 87.82575989 104.4021759 C86.25051517 105.97603195 84.66831465 107.54269293 83.0859375 109.109375 C81.98976787 110.20181286 80.89404019 111.29469434 79.79873657 112.38800049 C76.91960112 115.25951242 74.03450944 118.12496654 71.14813232 120.98919678 C68.20190185 123.91494126 65.26134931 126.84638014 62.3203125 129.77734375 C56.55241412 135.52381482 50.77821036 141.26389806 45 147 C46.29719924 149.85779017 47.6636826 151.91008536 49.88916016 154.11621094 C50.4696109 154.69651062 51.05006165 155.2768103 51.64810181 155.87469482 C52.27211884 156.48838928 52.89613586 157.10208374 53.5390625 157.734375 C54.17991791 158.37240051 54.82077332 159.01042603 55.48104858 159.66778564 C57.52437821 161.69994069 59.57455982 163.72502218 61.625 165.75 C63.0134786 167.1284453 64.4015049 168.50734636 65.7890625 169.88671875 C69.18748697 173.26311894 72.59207254 176.63319288 76 180 C70.4562073 186.59599123 64.55565483 192.76851776 58.50610352 198.89892578 C57.29274318 200.13395036 56.08569061 201.37520358 54.88500977 202.62255859 C53.12931162 204.44557167 51.35433256 206.24773234 49.57421875 208.046875 C49.0489006 208.6000238 48.52358246 209.15317261 47.98234558 209.7230835 C43.9041276 213.77956329 39.67264728 215.90940733 34 217 C21.05591896 216.89359003 8.84922 199.18070131 0.47143555 190.87646484 C-1.3872703 189.0394382 -3.25221878 187.20870685 -5.12329102 185.38427734 C-7.84297995 182.73158522 -10.54237334 180.05964436 -13.23828125 177.3828125 C-14.07265213 176.57627228 -14.90702301 175.76973206 -15.76667786 174.93875122 C-20.5536062 170.13468082 -23.95185478 165.84730723 -25 159 C-24.51048416 146.94828307 -10.54507392 137.42522317 -2.5625 129.5 C-1.3415631 128.28408886 -0.12085808 127.06794484 1.09960938 125.8515625 C4.06374013 122.89835034 7.03098958 119.94830602 10 117 C8.52914508 113.58496945 6.63084128 111.40731923 3.98095703 108.81738281 C3.15314728 108.00263489 2.32533752 107.18788696 1.47244263 106.34844971 C0.12870071 105.03901398 0.12870071 105.03901398 -1.2421875 103.703125 C-2.64799068 102.31614384 -4.05378195 100.92915036 -5.45887947 99.54145432 C-8.91822072 96.12787317 -12.38806146 92.72503366 -15.86376953 89.328125 C-17.81432477 87.42098356 -19.75929336 85.50844239 -21.69876099 83.59002686 C-23.52219863 81.78716725 -25.35380221 79.99251899 -27.19454956 78.20733643 C-34.82981955 70.63392295 -39.10114872 63.88751408 -39.3125 52.875 C-39.32816425 38.32291487 -30.9139719 30.84464794 -21.19140625 21.09375 C-18.65294547 18.55794901 -16.10807635 16.02865479 -13.5625 13.5 C-12.24520941 12.18773415 -10.92815014 10.87523605 -9.61132812 9.5625 C-6.4102139 6.37231494 -3.20598135 3.18529349 0 0 Z " fill="#1689FC" transform="translate(39,281)"/>
<path d="M0 0 C6.32941359 3.27032107 11.46835793 8.03826143 16.42822266 13.07177734 C17.11079636 13.75230667 17.79337006 14.432836 18.49662781 15.13398743 C20.72641987 17.36079847 22.94534498 19.59809653 25.1640625 21.8359375 C26.72568159 23.40061956 28.28789684 24.96470684 29.85067749 26.52822876 C33.11468705 29.79682495 36.37374687 33.0702465 39.62890625 36.34765625 C43.78563278 40.53266329 47.95098398 44.70894803 52.11963844 48.88207054 C56.11677242 52.88437926 60.10921899 56.89135132 64.1015625 60.8984375 C64.8554488 61.65420452 65.6093351 62.40997154 66.38606644 63.18864059 C68.53683087 65.34633966 70.6841931 67.50736742 72.83056641 69.66943359 C73.45516251 70.29514755 74.07975861 70.92086151 74.72328186 71.5655365 C78.44123962 75.31923385 81.9759873 79.1872686 85.41908169 83.19491005 C87.87692101 86.00126698 90.50219145 88.62663011 93.15234375 91.25 C93.69734024 91.79358154 94.24233673 92.33716309 94.80384827 92.8972168 C96.51269217 94.60054815 98.22501197 96.30033326 99.9375 98 C101.11026009 99.16773374 102.28278798 100.33570074 103.45507812 101.50390625 C106.30071689 104.33863234 109.14947453 107.17018824 112 110 C106.8189089 116.24883419 101.2003557 122.01555818 95.4921875 127.78125 C94.74668325 128.53473976 94.74668325 128.53473976 93.98611832 129.30345154 C91.36517644 131.95091025 88.7407172 134.59482943 86.11376953 137.23632812 C83.9439509 139.41958318 81.78167254 141.6099205 79.62548828 143.80664062 C77.01007849 146.47118876 74.38277161 149.12341924 71.74625015 151.76707458 C70.74603769 152.77401211 69.75009489 153.7852094 68.75854111 154.80067444 C67.37796 156.21268712 65.98013786 157.60778085 64.58154297 159.00195312 C63.79133759 159.80024536 63.0011322 160.5985376 62.1869812 161.42102051 C60 163 60 163 58.11947823 162.83104134 C55.41618317 161.77108709 53.95693079 160.3345558 51.90136719 158.28231812 C50.69015198 157.08379211 50.69015198 157.08379211 49.45446777 155.86105347 C48.57746216 154.97797516 47.70045654 154.09489685 46.796875 153.18505859 C45.86637329 152.25981384 44.93587158 151.33456909 43.97717285 150.38128662 C41.42470593 147.84250463 38.88183079 145.29431312 36.34095764 142.74393415 C33.67808335 140.07346266 31.00789473 137.41032106 28.33886719 134.7460022 C23.85461142 130.26720664 19.37672196 125.78211889 14.90234375 121.29345703 C9.7376882 116.11250435 4.56235456 110.94240741 -0.61871719 105.7778753 C-5.07108121 101.33915427 -9.51753554 96.89457685 -13.95916367 92.44511282 C-16.60986727 89.78974431 -19.26252687 87.13641506 -21.92053223 84.48835373 C-24.88797979 81.53123295 -27.84294235 78.56192977 -30.796875 75.59130859 C-32.11238342 74.28490921 -32.11238342 74.28490921 -33.45446777 72.95211792 C-41.29732072 65.02709989 -45.75152266 57.8761626 -46.0703125 46.48828125 C-45.44781621 34.82563024 -38.85998817 27.01758819 -31 19 C-30.3802832 18.35595215 -29.76056641 17.7119043 -29.12207031 17.04833984 C-27.02959474 14.87569088 -24.92348708 12.71715935 -22.8125 10.5625 C-22.13533936 9.86366699 -21.45817871 9.16483398 -20.76049805 8.44482422 C-14.59631977 2.2420962 -8.97639013 -1.6148372 0 0 Z " fill="#17ABE8" transform="translate(77,212)"/>
<path d="M0 0 C6.44861922 5.87819047 12.70548467 11.92671031 18.87402344 18.09619141 C20.51822798 19.7381613 22.17034787 21.37190377 23.82275391 23.00561523 C24.87141702 24.05135203 25.9196127 25.09755783 26.96728516 26.14428711 C27.46088531 26.63070175 27.95448547 27.11711639 28.46304321 27.61827087 C31.86572266 31.04430661 31.86572266 31.04430661 31.86572266 33.27319336 C33.35072266 33.76819336 33.35072266 33.76819336 34.86572266 34.27319336 C34.86572266 34.93319336 34.86572266 35.59319336 34.86572266 36.27319336 C36.35072266 36.76819336 36.35072266 36.76819336 37.86572266 37.27319336 C37.86572266 37.93319336 37.86572266 38.59319336 37.86572266 39.27319336 C38.41000412 39.49379425 38.95428558 39.71439514 39.51506042 39.94168091 C42.62480167 41.70316715 44.96771025 44.07204857 47.47631836 46.57739258 C48.02470871 47.11745941 48.57309906 47.65752625 49.1381073 48.21395874 C50.94470372 49.99650513 52.74359106 51.78657895 54.54150391 53.57788086 C55.79363984 54.82105086 57.04585345 56.06414263 58.29814148 57.30715942 C60.91855602 59.91109798 63.53455674 62.51938635 66.14819336 65.13012695 C69.50370718 68.48024032 72.8750996 71.81387746 76.25062275 75.14381218 C78.8403218 77.70383435 81.41875958 80.27497175 83.99416161 82.84936905 C85.23289103 84.08388211 86.47575746 85.31425807 87.72274208 86.54043198 C89.46119248 88.2521469 91.1832715 89.9788186 92.90209961 91.71020508 C93.42305206 92.21632324 93.94400452 92.72244141 94.48074341 93.24389648 C97.8328168 96.66649964 97.8328168 96.66649964 97.97564697 99.29989624 C96.38747362 102.12345625 94.37077266 104.12567444 92.07055664 106.40893555 C91.57297852 106.90695175 91.07540039 107.40496796 90.56274414 107.91807556 C88.9194469 109.55928597 87.26578631 111.18961999 85.61181641 112.82006836 C84.46916015 113.9571283 83.32716528 115.09485324 82.18580627 116.23321533 C79.1822476 119.22532812 76.16978851 122.20832195 73.15539551 125.18951416 C70.08011073 128.2340927 67.01331721 131.28719786 63.94580078 134.33959961 C57.9273922 140.32584853 51.89955549 146.30249181 45.86572266 152.27319336 C41.37413644 148.51578039 37.09950615 144.63962169 32.99462891 140.46459961 C32.4686058 139.93478989 31.9425827 139.40498016 31.40061951 138.8591156 C29.18513785 136.62753435 26.97574108 134.38996631 24.76586914 132.15283203 C23.13594544 130.5046027 21.50285221 128.85955847 19.86962891 127.21459961 C19.38603409 126.72270645 18.90243927 126.23081329 18.40419006 125.72401428 C15.73216451 123.03349739 12.98534485 120.48565197 10.10966492 118.01316833 C6.22001461 114.62207852 2.52197303 111.08367539 -1.12939453 107.43920898 C-1.7776268 106.79594162 -2.42585907 106.15267426 -3.09373474 105.48991394 C-5.20894342 103.38915424 -7.3203799 101.28465983 -9.43115234 99.17944336 C-10.52143108 98.09340569 -10.52143108 98.09340569 -11.63373566 96.98542786 C-15.47304339 93.16103495 -19.30952481 89.33383422 -23.14355469 85.50415039 C-27.09319791 81.56001019 -31.05204859 77.62524831 -35.01310349 73.69257355 C-38.07052763 70.65379487 -41.12120207 67.60830776 -44.17008209 64.56095886 C-45.62678838 63.10727042 -47.08598496 61.65607284 -48.54775238 60.20747375 C-50.59125678 58.18108489 -52.6250196 56.14537402 -54.65673828 54.10717773 C-55.2562883 53.5168425 -55.85583832 52.92650726 -56.47355652 52.31828308 C-60.93443074 47.81286175 -65.70943839 42.53338921 -65.69677734 35.83569336 C-64.9611463 25.96919359 -56.56620008 19.21630274 -49.94677734 12.64819336 C-49.05152344 11.73295898 -48.15626953 10.81772461 -47.23388672 9.87475586 C-34.95238967 -2.39787368 -16.03775166 -12.97586565 0 0 Z " fill="#17ABE8" transform="translate(277.13427734375,36.726806640625)"/>
<path d="M0 0 C1.41785526 1.43730164 1.41785526 1.43730164 3.07618713 3.4440918 C7.09167474 8.162032 11.3919893 12.5255309 15.78100586 16.89453125 C16.63058868 17.7442601 17.48017151 18.59398895 18.35549927 19.46946716 C20.66105939 21.77445443 22.96880637 24.07722355 25.27758861 26.37898254 C27.69904081 28.79413758 30.11761739 31.212169 32.53651428 33.62988281 C37.10647454 38.19674838 41.67897542 42.76106121 46.25241905 47.3244381 C51.46366502 52.52446478 56.6720351 57.72736797 61.88017833 62.93050194 C72.58361274 73.62351416 83.29061191 84.31295032 94 95 C92.59890967 97.91102545 91.23641575 100.02200199 88.96240234 102.328125 C88.34771088 102.95557617 87.73301941 103.58302734 87.09970093 104.22949219 C86.435159 104.89625977 85.77061707 105.56302734 85.0859375 106.25 C84.05323227 107.29269043 84.05323227 107.29269043 82.99966431 108.35644531 C81.54132546 109.82490164 80.08026627 111.29066065 78.61669922 112.75390625 C76.39350264 114.98146109 74.18677468 117.22448081 71.98046875 119.46875 C70.55827595 120.89681425 69.13512868 122.32392871 67.7109375 123.75 C67.05854095 124.41676758 66.40614441 125.08353516 65.73397827 125.77050781 C58.03985886 133.38990566 50.67763991 136.30302461 39.83374023 136.31469727 C26.39996687 136.04205313 18.49411875 126.65813614 9.57421875 117.68774414 C8.88054703 116.99421844 8.18687531 116.30069275 7.47218323 115.58615112 C5.20824012 113.32151826 2.94784741 111.05337751 0.6875 108.78515625 C-0.8926844 107.20310434 -2.47309153 105.62127488 -4.05371094 104.03965759 C-8.19210237 99.89746722 -12.32748054 95.75228143 -16.46221924 91.60644531 C-20.69043019 87.36796357 -24.92151052 83.13234829 -29.15234375 78.89648438 C-37.43769225 70.60044488 -45.71985738 62.30123518 -54 54 C-52.25663396 50.27814157 -50.13238253 47.87888226 -47.21484375 44.95605469 C-46.73008575 44.46779205 -46.24532776 43.97952942 -45.74588013 43.47647095 C-44.14806925 41.86988315 -42.54308458 40.27069119 -40.9375 38.671875 C-39.82384445 37.55687208 -38.71048592 36.44157242 -37.59741211 35.32598877 C-35.26707326 32.9927045 -32.93316268 30.66306869 -30.59667969 28.3359375 C-27.59692438 25.34760284 -24.6062717 22.35034434 -21.61820984 19.35032272 C-19.32277403 17.0476752 -17.02261502 14.7497936 -14.72097778 12.45334625 C-13.61586529 11.34957079 -12.51224446 10.24429984 -11.41012573 9.1375351 C-9.87324522 7.59559781 -8.330139 6.06018023 -6.78515625 4.52636719 C-5.46849976 3.21209747 -5.46849976 3.21209747 -4.12524414 1.87127686 C-2 0 -2 0 0 0 Z " fill="#136EF1" transform="translate(137,376)"/>
<path d="M0 0 C4.11813845 1.86605893 6.88366476 4.88072361 10.03610229 8.07086182 C10.76192505 8.78967529 11.4877478 9.50848877 12.23556519 10.24908447 C14.63424115 12.63014466 17.0179753 15.02555512 19.40109253 17.42218018 C21.06529753 19.08369044 22.73009591 20.74460656 24.39546204 22.404953 C27.88622819 25.88981846 31.3696494 29.38182408 34.84811401 32.87896729 C39.29886467 37.35245382 43.76725845 41.80781462 48.24136448 46.25792789 C51.68449669 49.68657266 55.11800343 53.12472947 58.54871941 56.56579399 C60.19196198 58.21169843 61.8381633 59.85465453 63.48739815 61.49455452 C65.79732878 63.79427792 68.09396817 66.10652383 70.38766479 68.42242432 C71.06673386 69.09339645 71.74580292 69.76436859 72.44544983 70.45567322 C80.02674371 78.17284345 82.95021677 85.52735158 82.96188354 96.36578369 C82.63222931 112.60856951 67.90276106 123.07753066 57.20968628 133.69952393 C55.89239569 135.01178978 54.57533642 136.32428787 53.2585144 137.63702393 C50.05740018 140.82720899 46.85316763 144.01423043 43.64718628 147.19952393 C40.38701841 145.77000716 38.22939284 144.02734901 35.72491455 141.5110321 C34.95661819 140.74403992 34.18832184 139.97704773 33.39674377 139.18681335 C32.56334976 138.34465775 31.72995575 137.50250214 30.87130737 136.63482666 C29.98636093 135.74856598 29.10141449 134.8623053 28.18965149 133.94918823 C26.2683291 132.02360153 24.34893065 130.09630284 22.4325676 128.16580009 C19.40390829 125.11486233 16.36816526 122.07103984 13.3314209 119.02815247 C8.53126541 114.21662225 3.73580804 109.40044081 -1.05762231 104.58221155 C-9.64803817 95.94743437 -18.24407852 87.31826501 -26.84531915 78.69427067 C-29.86472616 75.66644384 -32.88130153 72.63583149 -35.89564919 69.6029681 C-38.20712474 67.27837886 -40.52171117 64.95688988 -42.83572388 62.63482666 C-43.67316635 61.79064682 -44.51060883 60.94646698 -45.37342834 60.07670593 C-46.13608505 59.31253357 -46.89874176 58.54836121 -47.68450928 57.7610321 C-48.34853571 57.09348624 -49.01256214 56.42594038 -49.69671059 55.73816586 C-51.2888581 54.11435276 -51.2888581 54.11435276 -53.35281372 53.19952393 C-51.79420109 49.48880799 -49.51593779 47.08545869 -46.70706177 44.23150635 C-46.23687622 43.75139099 -45.76669067 43.27127563 -45.28225708 42.77661133 C-43.73190596 41.19715156 -42.17395718 39.62549171 -40.61453247 38.05499268 C-39.53077344 36.95972538 -38.447018 35.86445454 -37.36326599 34.7691803 C-35.09322733 32.47816406 -32.8185924 30.19181421 -30.54153442 27.90777588 C-27.62241911 24.97765964 -24.72233396 22.02943703 -21.82626629 19.07656384 C-19.59638849 16.80948772 -17.35325504 14.55589191 -15.10624123 12.30581093 C-14.03074777 11.2242575 -12.96026679 10.13769586 -11.8949337 9.04613304 C-10.40596344 7.52312921 -8.89929672 6.02010858 -7.38674927 4.52056885 C-6.10673286 3.22961555 -6.10673286 3.22961555 -4.80085754 1.9125824 C-2.35281372 0.19952393 -2.35281372 0.19952393 0 0 Z " fill="#136EF1" transform="translate(429.3528137207031,83.80047607421875)"/>
<path d="M0 0 C4.66874537 3.89976721 9.09127809 7.95214644 13.37109375 12.2734375 C13.93828629 12.84204498 14.50547882 13.41065247 15.08985901 13.99649048 C16.87479913 15.78696236 18.65620256 17.58090484 20.4375 19.375 C21.65796939 20.60049323 22.87867053 21.82575572 24.09960938 23.05078125 C27.06908756 26.03119774 30.03540257 29.01472894 33 32 C27.33267147 38.9206778 20.98776776 45.14575189 14.66064453 51.45288086 C13.40832895 52.70491403 12.15623421 53.9571681 10.90434265 55.20962524 C7.52067724 58.59357652 4.13394651 61.97444461 0.74664164 65.3547523 C-2.79856035 68.89368563 -6.34091396 72.43546779 -9.88357544 75.97694397 C-16.58561344 82.67587899 -23.29019557 89.37226169 -29.99570382 96.06772286 C-37.63250256 103.69332833 -45.26644807 111.32178743 -52.9001596 118.9504832 C-68.59694191 134.63682453 -84.29728973 150.31959297 -100 166 C-101.10146846 165.06518608 -102.20159002 164.12878502 -103.30116272 163.19174194 C-103.91394105 162.67045904 -104.52671938 162.14917614 -105.15806675 161.61209679 C-108.02071428 159.10665047 -110.69518224 156.42840608 -113.37109375 153.7265625 C-113.93828629 153.15795502 -114.50547882 152.58934753 -115.08985901 152.00350952 C-116.87479913 150.21303764 -118.65620256 148.41909516 -120.4375 146.625 C-121.65796939 145.39950677 -122.87867053 144.17424428 -124.09960938 142.94921875 C-127.06908756 139.96880226 -130.03540257 136.98527106 -133 134 C-129.52947224 130.52879697 -126.05733397 127.05921568 -122.58404541 123.59077454 C-121.49916788 122.50736289 -120.41429357 121.42394801 -119.329422 120.3405304 C-118.75566141 119.76754526 -118.18190083 119.19456013 -117.59075356 118.60421181 C-104.37969291 105.41083881 -91.17149704 92.21460092 -77.96492386 79.01673603 C-70.33164642 71.3886273 -62.69742493 63.76146773 -55.06103516 56.13647461 C-48.39146469 49.4768527 -41.72363769 42.81549104 -35.05792212 36.15201062 C-31.53082846 32.62622267 -28.00285407 29.10132609 -24.47278595 25.57851601 C-21.15791176 22.27040418 -17.84536425 18.95998077 -14.5346241 15.64773178 C-13.3168244 14.4302082 -12.09816129 13.21354755 -10.87859154 11.99779701 C-9.21942797 10.3435771 -7.56334171 8.68633754 -5.90802002 7.02827454 C-4.51433134 5.63596855 -4.51433134 5.63596855 -3.09248734 4.21553516 C-0.97125342 2.18335112 -0.97125342 2.18335112 0 0 Z " fill="#A8AFF1" transform="translate(322,189)"/>
<path d="M0 0 C1.37285156 -0.04253906 1.37285156 -0.04253906 2.7734375 -0.0859375 C10.61330607 1.18132893 16.37797482 8.78801093 21.73046875 14.109375 C22.70112902 15.07105282 23.67185879 16.03266049 24.64265442 16.99420166 C26.66936599 19.00448941 28.69170182 21.0190706 30.71166992 23.03613281 C33.28878937 25.60786399 35.88168693 28.16303428 38.47881603 30.71453476 C40.48716 32.69300837 42.48403101 34.68276824 44.4779911 36.67572784 C45.88771674 38.07925599 47.30900623 39.47113868 48.73051453 40.86273193 C54.0909819 46.26102434 58.39909489 50.88376819 58.7265625 58.84375 C55.97215196 70.58386048 43.96187608 79.15776294 35.6875 87.375 C34.41838627 88.6390885 33.14950411 89.90340956 31.88085938 91.16796875 C28.7982368 94.23966724 25.71249572 97.30820008 22.625 100.375 C15.07284104 94.20975115 8.36698698 87.18088431 1.52514648 80.25463867 C-5.70920703 72.86283416 -5.70920703 72.86283416 -13.34765625 65.8984375 C-19.36045487 60.77520361 -24.8144592 55.03998624 -30.375 49.4375 C-31.54273374 48.26473991 -32.71070074 47.09221202 -33.87890625 45.91992188 C-36.71363234 43.07428311 -39.54518824 40.22552547 -42.375 37.375 C-41.05422708 34.45381071 -39.62540054 32.37334216 -37.36572266 30.10693359 C-36.75814117 29.49304779 -36.15055969 28.87916199 -35.52456665 28.24667358 C-34.5417421 27.26992172 -34.5417421 27.26992172 -33.5390625 26.2734375 C-32.8633017 25.59576324 -32.18754089 24.91808899 -31.49130249 24.21987915 C-30.06306681 22.79028416 -28.63230905 21.36320502 -27.19921875 19.93847656 C-25.00808715 17.75804765 -22.82781591 15.56716934 -20.6484375 13.375 C-19.25845331 11.98633745 -17.86784883 10.59829545 -16.4765625 9.2109375 C-15.82539459 8.55572113 -15.17422668 7.90050476 -14.50332642 7.22543335 C-13.88944061 6.61785187 -13.27555481 6.01027039 -12.64306641 5.38427734 C-12.10726959 4.85007172 -11.57147278 4.31586609 -11.0194397 3.76547241 C-7.52233268 0.80845864 -4.53250018 0.06348039 0 0 Z " fill="#C3C8F6" transform="translate(439.375,14.625)"/>
<path d="M0 0 C2.79192366 1.27467043 4.84081631 2.59153969 7.00512695 4.76220703 C7.56283279 5.31683624 8.12053864 5.87146545 8.69514465 6.44290161 C9.28687973 7.0418222 9.87861481 7.6407428 10.48828125 8.2578125 C11.42041695 9.19063553 11.42041695 9.19063553 12.37138367 10.14230347 C13.68575416 11.45969214 14.99769625 12.77950751 16.30737305 14.1015625 C18.28976904 16.10206146 20.27989518 18.09459513 22.27148438 20.0859375 C27.7340198 25.56418137 33.13411293 31.02727952 38.14575195 36.92529297 C42.83520876 42.1722981 47.9444814 47.0443638 52.9375 52 C54.11026009 53.16773374 55.28278798 54.33570074 56.45507812 55.50390625 C59.30071689 58.33863234 62.14947453 61.17018824 65 64 C59.4562073 70.59599123 53.55565483 76.76851776 47.50610352 82.89892578 C46.29274318 84.13395036 45.08569061 85.37520358 43.88500977 86.62255859 C42.12931162 88.44557167 40.35433256 90.24773234 38.57421875 92.046875 C38.0489006 92.6000238 37.52358246 93.15317261 36.98234558 93.7230835 C32.9041276 97.77956329 28.67264728 99.90940733 23 101 C10.05591896 100.89359003 -2.15078 83.18070131 -10.52856445 74.87646484 C-12.3872703 73.0394382 -14.25221878 71.20870685 -16.12329102 69.38427734 C-18.84297995 66.73158522 -21.54237334 64.05964436 -24.23828125 61.3828125 C-25.48983757 60.17300217 -25.48983757 60.17300217 -26.76667786 58.93875122 C-31.5536062 54.13468082 -34.95185478 49.84730723 -36 43 C-35.50454664 30.78584412 -21.14237594 21.02408005 -13.0625 13 C-11.79338627 11.7359115 -10.52450411 10.47159044 -9.25585938 9.20703125 C-6.1732368 6.13533276 -3.08749572 3.06679992 0 0 Z " fill="#C3C8F6" transform="translate(50,397)"/>
<path d="M0 0 C5.69883308 2.69337155 9.6294254 7.22028196 14.0625 11.625 C14.97322266 12.50285156 15.88394531 13.38070312 16.82226562 14.28515625 C22.36475678 19.78271933 26.76597057 24.31128453 27.1015625 32.46875 C24.34715196 44.20886048 12.33687608 52.78276294 4.0625 61 C2.79338627 62.2640885 1.52450411 63.52840956 0.25585938 64.79296875 C-2.8267632 67.86466724 -5.91250428 70.93320008 -9 74 C-16.07229271 68.22753532 -22.38970365 61.72130828 -28.8125 55.25 C-29.9678644 54.08961016 -31.12346152 52.92945198 -32.27929688 51.76953125 C-34.38400646 49.65669773 -36.48744691 47.54262042 -38.58911133 45.42675781 C-40.05721512 43.94899055 -41.52705654 42.47294346 -43 41 C-42.25865311 40.58397018 -41.51730621 40.16794037 -40.75349426 39.73930359 C-38.10995139 38.06945315 -36.14049128 36.3822337 -33.9440918 34.17114258 C-33.18368088 33.4105806 -32.42326996 32.65001862 -31.63981628 31.8664093 C-30.8344191 31.05068954 -30.02902191 30.23496979 -29.19921875 29.39453125 C-28.36284378 28.55532639 -27.52646881 27.71612152 -26.66474915 26.85148621 C-24.00092645 24.1764904 -21.34415185 21.49461574 -18.6875 18.8125 C-16.88001795 16.99498448 -15.07208045 15.17792177 -13.26367188 13.36132812 C-8.8371543 8.9127882 -4.41639948 4.45858387 0 0 Z " fill="#A8AFF1" transform="translate(471,41)"/>
<path d="M0 0 C11 11 22 22 33 33 C27.4562073 39.59599123 21.55565483 45.76851776 15.50610352 51.89892578 C14.29274318 53.13395036 13.08569061 54.37520358 11.88500977 55.62255859 C10.12931162 57.44557167 8.35433256 59.24773234 6.57421875 61.046875 C6.0489006 61.6000238 5.52358246 62.15317261 4.98234558 62.7230835 C0.9041276 66.77956329 -3.32735272 68.90940733 -9 70 C-19.40464779 69.62632303 -26.69933436 59.4450255 -33.5 52.5625 C-34.22703125 51.83095703 -34.9540625 51.09941406 -35.703125 50.34570312 C-37.47109499 48.56610176 -39.23666378 46.78419082 -41 45 C-39.57173458 41.736588 -37.83219843 39.5971685 -35.30053711 37.10522461 C-34.16442238 35.97901955 -34.16442238 35.97901955 -33.00535583 34.83006287 C-32.18761185 34.02891556 -31.36986786 33.22776825 -30.52734375 32.40234375 C-29.68909561 31.57166885 -28.85084747 30.74099396 -27.98719788 29.88514709 C-25.30870061 27.23109149 -22.62389885 24.58355604 -19.9375 21.9375 C-16.3992688 18.45229966 -12.86757562 14.96066753 -9.33984375 11.46484375 C-8.11019142 10.26008644 -8.11019142 10.26008644 -6.85569763 9.0309906 C-6.10143997 8.28333939 -5.34718231 7.53568817 -4.57006836 6.76538086 C-3.56984901 5.78087196 -3.56984901 5.78087196 -2.54942322 4.776474 C-0.7778075 2.97551677 -0.7778075 2.97551677 0 0 Z " fill="#A8AFF1" transform="translate(82,428)"/>
</svg>
